# xmcd
#
# Track frame offsets: 
#        150
#        15369
#        29585
#        49280
#        70271
#        87054
#        101885
#        117365
#        131989
#        161267
#        185857
#
# Disc length: 2790 seconds
#
# Revision: 0
# Processed by: cddbd v1.5.2PL0 Copyright (c) Steve Scherf et al.
# Submitted via: ExactAudioCopy v0.99pb5
#
DISCID=980ae40b
DTITLE=Alex Wilson - Tell Me Why
DYEAR=2007
DGENRE=Blues
TTITLE0=I Like To Play
TTITLE1=Come Back Baby
TTITLE2=Rockinitis
TTITLE3=Take It Easy Baby
TTITLE4=I Wish I Had My Baby Back
TTITLE5=When We Get So Close
TTITLE6=My Life With You
TTITLE7=The Moon Is Shinin'
TTITLE8=Lokkin' Good
TTITLE9=Sacred And Untrue
TTITLE10=You Used To Know Me
EXTD=
EXTT0=
EXTT1=
EXTT2=
EXTT3=
EXTT4=
EXTT5=
EXTT6=
EXTT7=
EXTT8=
EXTT9=
EXTT10=
PLAYORDER=
